<?xml version="1.0"  encoding="UTF-8"?><svg fill="#fff" id="Capa_2" xmlns="http://www.w3.org/2000/svg" viewBox="0 0 95.42 95.42"><g id="Capa_1-2"><g><path d="M47.71,95.42C21.4,95.42,0,74.02,0,47.71S21.4,0,47.71,0s47.71,21.4,47.71,47.71c0,7.27-1.59,14.24-4.73,20.73l4.67,22.42c.19,.89-.1,1.81-.75,2.44-.66,.63-1.59,.88-2.47,.67l-20.43-5.01c-7.26,4.23-15.53,6.46-24,6.46Zm0-90.13C24.32,5.29,5.29,24.32,5.29,47.71s19.03,42.42,42.42,42.42c7.86,0,15.54-2.16,22.19-6.26,.6-.37,1.33-.48,2.02-.32l17.41,4.27-4-19.21c-.12-.59-.04-1.2,.23-1.74,3.03-5.97,4.57-12.43,4.57-19.18,0-23.37-19.03-42.4-42.42-42.4Z"/><path d="M52.4,35.88c0-3.22-2.05-5.43-5.56-5.43-2.76,0-5.02,1.39-7.01,3.52l-4.39-4.01c3.04-3.44,7.23-5.92,12.35-5.92,7.12,0,12.19,3.9,12.19,11.29,0,8.67-10.61,11.75-9.66,20.54h-6.9c-1.41-9.95,8.98-13.82,8.98-19.99Zm-10.53,30.2c0-3.08,2.21-5.35,5.08-5.35s5.07,2.26,5.07,5.35-2.21,5.29-5.07,5.29c-2.87,0-5.08-2.26-5.08-5.29Z"/></g></g></svg>