<?xml version="1.0" encoding="UTF-8"?>
<svg id="Capa_2" xmlns="http://www.w3.org/2000/svg" fill="#fff" viewBox="0 0 93.94 93.94">
    <g id="Capa_1-2">
        <g>
            <path d="M56.7,53.77c0-9.68-12.96-8.53-12.96-14.26,0-2.44,1.55-3.82,4.16-3.82,1.69,0,2.92,.5,4.16,1.42,.79,.59,1.9,.49,2.56-.25l.37-.42c.71-.81,.61-2.05-.23-2.73-1.48-1.19-3.24-2.04-5.47-2.33v-2.96c0-1.04-.85-1.89-1.89-1.89h0c-1.04,0-1.89,.85-1.89,1.89v2.98c-4.33,.77-7.08,3.9-7.08,8.38,0,8.94,12.96,8.07,12.96,14.37,0,2.57-1.49,4.09-4.6,4.09-2,0-3.82-.71-5.57-1.87-.86-.57-2.03-.32-2.6,.55l-.41,.63c-.58,.89-.31,2.06,.58,2.65,1.99,1.31,4.45,2.15,6.73,2.4v2.92c0,1.04,.85,1.89,1.89,1.89h0c1.04,0,1.89-.85,1.89-1.89v-3.02c4.71-.87,7.4-4.19,7.4-8.73Z" />
            <g>
                <path d="M46.97,93.94C21.07,93.94,0,72.87,0,46.97S21.07,0,46.97,0s46.97,21.07,46.97,46.97-21.07,46.97-46.97,46.97Zm0-88.94C23.83,5,5,23.83,5,46.97s18.83,41.97,41.97,41.97,41.97-18.83,41.97-41.97c0-23.14-18.83-41.97-41.97-41.97Z" />
                <path d="M46.97,81.49c-19.04,0-34.52-15.49-34.52-34.52,0-6.2,1.66-12.28,4.81-17.58,.7-1.19,2.24-1.58,3.43-.88,1.19,.71,1.58,2.24,.88,3.43-2.69,4.53-4.11,9.73-4.11,15.03,0,16.28,13.24,29.52,29.52,29.52s29.52-13.24,29.52-29.52-13.25-29.52-29.53-29.52c-2.54,0-5.06,.32-7.49,.96-1.34,.35-2.7-.45-3.05-1.79-.35-1.34,.45-2.7,1.79-3.05,2.84-.74,5.79-1.12,8.75-1.12,19.04,0,34.52,15.49,34.52,34.52s-15.48,34.52-34.52,34.52Z" />
                <circle cx="29.68" cy="23.56" r="2.81" />
            </g>
        </g>
    </g>
</svg>