
                                        <svg width="9" height="10" viewBox="0 0 9 10" fill="none"
                                        xmlns="http://www.w3.org/2000/svg">
                                        <g clip-path="url(#clip0_174_2990)">
                                            <path
                                                d="M7.91291 9.99974H1.08763C0.974996 9.96354 0.856507 9.94141 0.751184 9.88854C0.25285 9.63932 0.00222057 9.2138 0.00173296 8.62604C2.63367e-05 6.88177 0.00100155 5.13724 0.00100155 3.39297C0.00100155 2.95677 -0.00168029 2.52083 0.00173296 2.08464C0.00709663 1.43385 0.392306 0.903906 0.975727 0.776823C1.18125 0.732031 1.39897 0.751042 1.61108 0.741406C1.64911 0.739583 1.68739 0.741406 1.73005 0.741406C1.73005 0.641927 1.73469 0.557031 1.72908 0.472917C1.71421 0.244792 1.79418 0.0820312 1.99995 0H2.16427C2.36882 0.0919271 2.44415 0.260156 2.42343 0.490365C2.41636 0.570052 2.42221 0.651042 2.42221 0.736458H6.57784C6.57784 0.638021 6.5754 0.544531 6.57857 0.451042C6.58077 0.383333 6.58247 0.313802 6.59856 0.248958C6.63075 0.11849 6.73217 0.0559896 6.83603 0H7.00035C7.20612 0.0820312 7.2856 0.245312 7.27122 0.473177C7.26561 0.559375 7.27024 0.646615 7.27024 0.741667C7.44237 0.741667 7.60376 0.730729 7.76297 0.744792C7.90974 0.758073 8.06187 0.776562 8.19864 0.830729C8.70112 1.02943 8.99832 1.51458 8.99881 2.11432C9.00003 3.51042 8.99929 4.90651 8.99929 6.3026C8.99929 7.08047 9.00076 7.85833 8.99881 8.63594C8.9971 9.27344 8.63822 9.78932 8.08747 9.9526C8.02969 9.96979 7.97118 9.98411 7.91291 10V9.99974ZM0.69706 3.89245C0.695353 3.92812 0.692428 3.9599 0.692428 3.99167C0.692428 5.53411 0.69194 7.07656 0.692428 8.61901C0.692428 9.01693 0.918433 9.25807 1.28828 9.25807C3.42888 9.25807 5.56923 9.25807 7.70982 9.25807C8.08138 9.25807 8.30738 9.01849 8.30762 8.62109C8.30836 7.07865 8.30787 5.5362 8.30762 3.99375C8.30762 3.9599 8.30397 3.92578 8.30202 3.89245H0.69706ZM2.42173 1.48672C2.42173 1.62135 2.42441 1.74453 2.42099 1.86771C2.41661 2.02708 2.31591 2.1625 2.17524 2.20625C1.9507 2.27578 1.73956 2.10573 1.73127 1.84557C1.72737 1.72682 1.73054 1.60781 1.73054 1.48255C1.57426 1.48255 1.43164 1.48255 1.28926 1.48255C0.917702 1.48307 0.693891 1.72161 0.692672 2.12005C0.691696 2.42917 0.692428 2.73828 0.692672 3.04766C0.692672 3.07865 0.695353 3.1099 0.696572 3.13906H8.29909C8.29909 2.74818 8.31226 2.36406 8.29422 1.98177C8.283 1.74323 8.13867 1.5638 7.92363 1.51589C7.71396 1.46901 7.49235 1.48385 7.27024 1.47135C7.27024 1.60469 7.27122 1.71172 7.27024 1.81901C7.2678 2.05469 7.12128 2.22344 6.9216 2.22292C6.72217 2.22214 6.57955 2.05365 6.57833 1.81615C6.57784 1.70677 6.57833 1.5974 6.57833 1.48672H2.42173Z"
                                                fill="#1E1E1E" />
                                        </g>
                                        <defs>
                                            <clipPath id="clip0_174_2990">
                                                <rect width="9" height="10" fill="white" />
                                            </clipPath>
                                        </defs>
                                    </svg>