<?xml version="1.0" encoding="UTF-8"?><svg fill="#fff" id="Capa_2" xmlns="http://www.w3.org/2000/svg" viewBox="0 0 95.19 95.18"><g id="Capa_1-2"><g><path d="M47.6,5.75c1.35,0,2.59,.61,3.41,1.69l5.29,6.92c1.75,2.3,4.53,3.67,7.42,3.67,.41,0,.83-.03,1.24-.08l8.63-1.16c.2-.03,.4-.04,.6-.04,1.22,0,2.39,.54,3.21,1.47,.48,.54,1.24,1.71,1.02,3.39l-1.16,8.63c-.44,3.31,.93,6.63,3.59,8.66l6.92,5.29c1.07,.82,1.69,2.06,1.69,3.41s-.61,2.59-1.69,3.41l-6.92,5.29c-2.66,2.03-4.03,5.34-3.59,8.66l1.16,8.63c.23,1.68-.54,2.84-1.02,3.39-.82,.94-1.99,1.47-3.21,1.47-.2,0-.4-.01-.6-.04l-8.63-1.16c-.41-.05-.83-.08-1.24-.08-2.89,0-5.66,1.37-7.42,3.67l-5.29,6.92c-.82,1.07-2.06,1.69-3.41,1.69s-2.59-.61-3.41-1.69l-5.29-6.92c-1.75-2.3-4.53-3.67-7.42-3.67-.41,0-.83,.03-1.24,.08l-8.63,1.16c-.2,.03-.4,.04-.6,.04-1.22,0-2.39-.54-3.21-1.47-.48-.54-1.24-1.71-1.02-3.39l1.16-8.63c.44-3.31-.93-6.63-3.59-8.66l-6.92-5.29c-1.06-.83-1.68-2.07-1.68-3.42s.61-2.59,1.69-3.41l6.92-5.29c2.66-2.03,4.03-5.34,3.59-8.66l-1.16-8.63c-.23-1.68,.54-2.84,1.02-3.39,.82-.94,1.99-1.47,3.21-1.47,.2,0,.4,.01,.6,.04l8.63,1.16c.41,.05,.83,.08,1.24,.08,2.89,0,5.66-1.37,7.42-3.67l5.29-6.92c.8-1.07,2.05-1.68,3.4-1.68m0-5.75c-2.98,0-5.97,1.32-7.98,3.95l-5.29,6.92c-.68,.89-1.74,1.41-2.85,1.41-.16,0-.32-.01-.48-.03l-8.63-1.16c-.46-.06-.91-.09-1.36-.09-5.95,0-10.74,5.27-9.92,11.37l1.16,8.63c.17,1.27-.35,2.54-1.38,3.32l-6.92,5.29c-5.26,4.02-5.26,11.94,0,15.96l6.92,5.29c1.02,.78,1.55,2.05,1.38,3.32l-1.16,8.63c-.82,6.1,3.97,11.37,9.92,11.37,.45,0,.9-.03,1.36-.09l8.63-1.16c.16-.02,.32-.03,.48-.03,1.11,0,2.16,.51,2.85,1.41l5.29,6.92c2.01,2.63,4.99,3.95,7.98,3.95s5.97-1.32,7.98-3.95l5.29-6.92c.68-.89,1.74-1.41,2.85-1.41,.16,0,.32,.01,.48,.03l8.63,1.16c.46,.06,.91,.09,1.36,.09,5.95,0,10.74-5.27,9.92-11.37l-1.16-8.63c-.17-1.27,.35-2.54,1.38-3.32l6.92-5.29c5.26-4.02,5.26-11.94,0-15.96l-6.92-5.29c-1.02-.78-1.55-2.05-1.38-3.32l1.16-8.63c.82-6.1-3.97-11.37-9.92-11.37-.45,0-.9,.03-1.36,.09l-8.63,1.16c-.16,.02-.32,.03-.48,.03-1.11,0-2.16-.51-2.85-1.41l-5.29-6.92c-2.02-2.64-5-3.95-7.98-3.95h0Z"/><path d="M47.6,71.44c-13.15,0-23.85-10.7-23.85-23.85s10.7-23.85,23.85-23.85,23.84,10.7,23.84,23.85c0,3.02-.56,5.97-1.66,8.76-.58,1.48-2.25,2.2-3.73,1.62s-2.2-2.25-1.62-3.73c.83-2.11,1.26-4.35,1.26-6.65,0-9.98-8.12-18.1-18.1-18.1s-18.09,8.12-18.09,18.1,8.12,18.1,18.1,18.1c2.56,0,5.03-.52,7.34-1.55,1.45-.65,3.15,.01,3.79,1.46s0,3.15-1.46,3.79c-3.05,1.36-6.31,2.05-9.67,2.05Z"/></g></g></svg>