<?xml version="1.0" encoding="UTF-8"?><svg fill="#fff" id="Capa_2" xmlns="http://www.w3.org/2000/svg" viewBox="0 0 96.07 96.6"><g id="Capa_1-2"><path d="M75.59,96.6h-10.95c-3.42,0-6.21-2.79-6.21-6.21v-17.48c0-3.42-2.79-6.21-6.21-6.21h-5.78c-3.42,0-6.21,2.79-6.21,6.21v17.48c0,3.42-2.79,6.21-6.21,6.21h-12.93c-6.36,0-11.53-5.17-11.53-11.53v-27.02c-5.3-.15-9.56-4.51-9.56-9.85,0-2.63,1.02-5.1,2.88-6.96L41.77,2.35c3.1-3.1,8.18-3.14,11.33-.08l39.07,38.03c2.48,2.42,3.9,5.79,3.9,9.25,0,4.69-3.81,8.5-8.5,8.5-.25,0-.45,.2-.45,.45v26.57c0,6.36-5.17,11.53-11.53,11.53Zm-29.15-35.22h5.79c6.36,0,11.53,5.17,11.53,11.53v17.48c0,.49,.4,.89,.89,.89h10.95c3.42,0,6.21-2.79,6.21-6.21v-26.57c0-3.18,2.59-5.77,5.77-5.77,1.75,0,3.18-1.43,3.18-3.18,0-2.04-.84-4.02-2.29-5.44L49.41,6.08c-1.07-1.04-2.8-1.03-3.85,.03L6.65,45c-.84,.84-1.33,2.01-1.33,3.2,0,2.5,2.03,4.53,4.53,4.53,2.77,0,5.03,2.26,5.03,5.03v27.31c0,3.42,2.79,6.21,6.21,6.21h12.93c.49,0,.89-.4,.89-.89v-17.48c0-6.35,5.17-11.53,11.53-11.53Z"/></g></svg>