<?xml version="1.0" encoding="utf-8"?>
<!-- Generator: Adobe Illustrator 26.4.1, SVG Export Plug-In . SVG Version: 6.00 Build 0)  -->
<svg fill="#fff" version="1.1" id="Capa_1" xmlns="http://www.w3.org/2000/svg" xmlns:xlink="http://www.w3.org/1999/xlink" x="0px" y="0px"
	 viewBox="0 0 24 24" style="enable-background:new 0 0 24 24;" xml:space="preserve">
<style type="text/css">
	.st0{fill:#E9511D;}
</style>
<path class="st0" d="M10,7c0,1.4,0.4,2.7,1.2,3.9c0.8,1.2,1.9,2.1,3.2,2.6c1.3,0.5,2.7,0.7,4.1,0.4s2.6-1,3.6-2V12
	c0,5.5-4.5,10-10,10S2,17.5,2,12S6.5,2,12,2h0.1c-0.7,0.7-1.2,1.4-1.6,2.3C10.2,5.1,10,6.1,10,7z M4,12c0,1.8,0.6,3.5,1.7,4.9
	c1.1,1.4,2.6,2.4,4.4,2.8c1.7,0.4,3.6,0.3,5.2-0.5c1.6-0.7,3-2,3.8-3.6c-1.5,0.4-3.1,0.3-4.5-0.1c-1.5-0.4-2.8-1.2-3.9-2.3
	c-1.1-1.1-1.9-2.4-2.3-3.9C7.9,8,7.9,6.4,8.2,4.9C7,5.6,5.9,6.6,5.1,7.9C4.4,9.1,4,10.5,4,12z"/>
</svg>
