<?xml version="1.0" encoding="utf-8"?>
<!-- Generator: Adobe Illustrator 26.4.1, SVG Export Plug-In . SVG Version: 6.00 Build 0)  -->
<svg fill="#fff" version="1.1" id="Capa_2_00000129885939691368100700000008848541457349410722_"
	 xmlns="http://www.w3.org/2000/svg" xmlns:xlink="http://www.w3.org/1999/xlink" x="0px" y="0px" viewBox="0 0 21.6 18"
	 style="enable-background:new 0 0 21.6 18;" xml:space="preserve">
<style type="text/css">
	.st0{fill:#E9511D;}
</style>
<g id="Capa_1-2">
	<path class="st0" d="M10.8,0c5.4,0,9.9,3.9,10.8,9c-0.9,5.1-5.4,9-10.8,9S0.9,14.1,0,9C0.9,3.9,5.4,0,10.8,0z M10.8,16
		c4.2,0,7.8-2.9,8.8-7c-1.1-4.8-5.9-7.9-10.8-6.8C5.4,3,2.8,5.6,2,9C3,13.1,6.6,16,10.8,16L10.8,16z M10.8,13.5
		c-2.5,0-4.5-2-4.5-4.5s2-4.5,4.5-4.5s4.5,2,4.5,4.5S13.3,13.5,10.8,13.5L10.8,13.5z M10.8,11.5c1.4,0,2.5-1.1,2.5-2.5
		s-1.1-2.5-2.5-2.5S8.3,7.6,8.3,9S9.4,11.5,10.8,11.5z"/>
</g>
</svg>
