<?xml version="1.0" encoding="utf-8"?>
<!-- Generator: Adobe Illustrator 26.4.1, SVG Export Plug-In . SVG Version: 6.00 Build 0)  -->
<svg fill="#fff" version="1.1" id="Capa_1" xmlns="http://www.w3.org/2000/svg" xmlns:xlink="http://www.w3.org/1999/xlink" x="0px" y="0px"
	 viewBox="0 0 24 24" style="enable-background:new 0 0 24 24;" xml:space="preserve">
<style type="text/css">
	.st0{fill:#E9511D;}
</style>
<path class="st0" d="M18,10c0-1.6-0.6-3.1-1.8-4.2C15.1,4.6,13.6,4,12,4S8.9,4.6,7.8,5.8S6,8.4,6,10v8h12V10z M20,18.7l0.4,0.5
	c0.1,0.1,0.1,0.2,0.1,0.3c0,0.1,0,0.2-0.1,0.3c0,0.1-0.1,0.2-0.2,0.2C20.2,20,20.1,20,20,20H4c-0.1,0-0.2,0-0.3-0.1
	c-0.1,0-0.1-0.1-0.2-0.2c0-0.1-0.1-0.2-0.1-0.3c0-0.1,0-0.2,0.1-0.3L4,18.7V10c0-2.1,0.8-4.2,2.3-5.7C7.8,2.8,9.9,2,12,2
	c2.1,0,4.2,0.8,5.7,2.3C19.2,5.8,20,7.9,20,10V18.7z M9.5,21h5c0,0.7-0.3,1.3-0.7,1.8c-0.5,0.5-1.1,0.7-1.8,0.7s-1.3-0.3-1.8-0.7
	C9.8,22.3,9.5,21.7,9.5,21z"/>
</svg>
