<?xml version="1.0" encoding="utf-8"?>
<!-- Generator: Adobe Illustrator 26.4.1, SVG Export Plug-In . SVG Version: 6.00 Build 0)  -->
<svg fill="#fff" version="1.1" id="Capa_1" xmlns="http://www.w3.org/2000/svg" xmlns:xlink="http://www.w3.org/1999/xlink" x="0px" y="0px"
	 viewBox="0 0 24 24" style="enable-background:new 0 0 24 24;" xml:space="preserve">
<style type="text/css">
	.st0{fill:#E9511D;}
</style>
<path class="st0" d="M17.9,19.3C16.1,20.4,14.1,21,12,21c-5.4,0-9.9-3.9-10.8-9c0.4-2.3,1.6-4.5,3.3-6.1L1.4,2.8l1.4-1.4l19.8,19.8
	l-1.4,1.4L17.9,19.3L17.9,19.3z M5.9,7.4C4.6,8.6,3.6,10.2,3.2,12c0.3,1.4,0.9,2.6,1.8,3.7c0.9,1.1,2,1.9,3.3,2.5
	c1.3,0.6,2.7,0.8,4.1,0.8c1.4-0.1,2.8-0.5,4-1.2l-2-2c-0.9,0.5-1.9,0.8-2.9,0.7c-1-0.1-2-0.6-2.7-1.3c-0.7-0.7-1.2-1.7-1.3-2.7
	c-0.1-1,0.1-2,0.7-2.9L5.9,7.4z M12.9,14.3l-3.2-3.2c-0.2,0.5-0.2,0.9-0.1,1.4c0.1,0.5,0.3,0.9,0.7,1.3c0.3,0.3,0.8,0.6,1.3,0.7
	C12,14.5,12.5,14.5,12.9,14.3L12.9,14.3z M20.8,16.6l-1.4-1.4c0.7-1,1.1-2,1.4-3.2c-0.3-1.2-0.8-2.3-1.5-3.3c-0.7-1-1.6-1.8-2.7-2.4
	s-2.2-1-3.4-1.2C12,4.9,10.7,5,9.6,5.3L8,3.8C9.2,3.3,10.6,3,12,3c5.4,0,9.9,3.9,10.8,9C22.5,13.7,21.8,15.2,20.8,16.6z M11.7,7.5
	c0.6,0,1.3,0.1,1.9,0.3c0.6,0.2,1.1,0.6,1.6,1c0.5,0.5,0.8,1,1,1.6c0.2,0.6,0.3,1.2,0.3,1.9L11.7,7.5L11.7,7.5z"/>
</svg>
