<?xml version="1.0" encoding="UTF-8"?><svg fill="#fff" id="Capa_2" xmlns="http://www.w3.org/2000/svg" viewBox="0 0 97.12 91.29"><g id="Capa_1-2"><g><path d="M51.47,0C31.59,0,14.13,12.7,8.02,31.61c-.45,1.39,.31,2.87,1.7,3.32s2.87-.31,3.32-1.7C18.44,16.51,33.88,5.27,51.47,5.27c22.26,0,40.38,18.11,40.38,40.37s-18.11,40.37-40.38,40.37c-16.94,0-32.2-10.7-37.97-26.61-.49-1.37-2.01-2.07-3.38-1.58-1.37,.5-2.08,2.01-1.58,3.38,6.52,18,23.78,30.09,42.93,30.09,25.17,0,45.65-20.48,45.65-45.65S76.64,0,51.47,0Z"/><path d="M44.83,62.49c-1.03,1.03-1.03,2.7,0,3.73,.52,.52,1.19,.77,1.86,.77s1.35-.26,1.86-.77l18.43-18.43c.07-.07,.09-.15,.15-.22,.08-.08,.16-.17,.23-.25,.03-.03,.07-.04,.11-.07,1.03-1.03,1.03-2.7,0-3.73l-18.43-18.43c-1.03-1.03-2.7-1.03-3.73,0s-1.03,2.7,0,3.73l14.2,14.2H2.64c-1.46,0-2.64,1.18-2.64,2.64s1.18,2.64,2.64,2.64H59.02l-14.19,14.19Z"/></g></g></svg>