<?xml version="1.0" encoding="UTF-8"?><svg id="Capa_2" xmlns="http://www.w3.org/2000/svg" viewBox="0 0 150.58 43.3"><defs><style>.cls-1{fill:#e9511d;}</style></defs><g id="Capa_1-2"><g><path class="cls-1" d="M36.75,14.94c1.88-2.37,5.01-3.56,9.39-3.56s7.51,1.19,9.39,3.56c1.88,2.37,2.82,5.93,2.82,10.67s-.91,8.32-2.74,10.73c-1.82,2.41-4.98,3.61-9.47,3.61s-7.64-1.2-9.47-3.61c-1.82-2.41-2.74-5.98-2.74-10.73s.94-8.3,2.82-10.67Zm4.46,17.79c.84,1.46,2.48,2.19,4.93,2.19s4.09-.73,4.93-2.19c.84-1.46,1.26-3.85,1.26-7.17s-.45-5.67-1.34-7.06c-.89-1.39-2.51-2.08-4.84-2.08s-3.95,.69-4.84,2.08c-.89,1.39-1.34,3.74-1.34,7.06s.42,5.71,1.26,7.17Z"/><path class="cls-1" d="M64.25,39.35V11.99h5.91v3.28c3.1-2.01,6.2-3.3,9.3-3.89v5.97c-3.14,.62-5.82,1.42-8.04,2.41l-1.2,.49v19.1h-5.97Z"/><path class="cls-1" d="M84.29,14.94c1.88-2.37,5.01-3.56,9.39-3.56s7.51,1.19,9.39,3.56c1.88,2.37,2.82,5.93,2.82,10.67s-.91,8.32-2.74,10.73c-1.82,2.41-4.98,3.61-9.47,3.61s-7.64-1.2-9.47-3.61c-1.82-2.41-2.74-5.98-2.74-10.73s.94-8.3,2.82-10.67Zm4.46,17.79c.84,1.46,2.48,2.19,4.93,2.19s4.09-.73,4.93-2.19c.84-1.46,1.26-3.85,1.26-7.17s-.45-5.67-1.34-7.06c-.89-1.39-2.51-2.08-4.84-2.08s-3.95,.69-4.84,2.08c-.9,1.39-1.34,3.74-1.34,7.06s.42,5.71,1.26,7.17Z"/><path class="cls-1" d="M117.96,17.07v22.27h-5.91V17.07h-3.17v-5.09h3.17v-1.75c0-3.9,.56-6.59,1.7-8.05,1.13-1.46,3.14-2.19,6.02-2.19l5.91,.55-.06,4.87c-1.79-.07-3.27-.11-4.46-.11s-2.02,.36-2.49,1.07c-.48,.71-.71,2.02-.71,3.91v1.7h7.22v5.09h-7.22Z"/><path class="cls-1" d="M127.1,11.99h6.35l5.36,9.47,5.42-9.47h6.35l-8.15,13.46,8.15,13.9h-6.35l-5.42-9.36-5.36,9.36h-6.35l7.94-13.74-7.94-13.63Z"/><polygon class="cls-1" points="17.54 38.25 12.49 43.3 .12 30.93 .12 20.59 8.83 11.88 9 11.88 9 29.71 17.54 38.25"/><line class="cls-1" x1=".12" y1="20.59" y2="20.71"/><polygon class="cls-1" points="29.13 11.88 29.13 26.65 20.25 35.53 20.25 11.88 29.13 11.88"/><line class="cls-1" x1=".12" y1="20.83" y2="20.71"/></g></g></svg>